<svg xmlns="http://www.w3.org/2000/svg" xmlns:xlink="http://www.w3.org/1999/xlink" width="500" zoomAndPan="magnify" viewBox="0 0 375 374.999991" height="500" preserveAspectRatio="xMidYMid meet" version="1.0"><defs><clipPath id="0ca7f117cf"><path d="M 224 225 L 352 225 L 352 352.488281 L 224 352.488281 Z M 224 225 " clip-rule="nonzero"/></clipPath></defs><path fill="#ff914d" d="M 158.78125 286.011719 C 156.207031 286.015625 153.632812 285.9375 151.058594 285.78125 C 148.488281 285.625 145.921875 285.386719 143.363281 285.074219 C 140.804688 284.757812 138.261719 284.367188 135.726562 283.894531 C 133.191406 283.425781 130.675781 282.878906 128.175781 282.253906 C 125.675781 281.628906 123.199219 280.925781 120.742188 280.148438 C 118.285156 279.371094 115.851562 278.519531 113.449219 277.59375 C 111.042969 276.667969 108.671875 275.667969 106.328125 274.59375 C 103.984375 273.523438 101.675781 272.378906 99.402344 271.164062 C 97.128906 269.949219 94.894531 268.667969 92.699219 267.316406 C 90.507812 265.964844 88.355469 264.546875 86.25 263.066406 C 84.140625 261.582031 82.082031 260.035156 80.070312 258.425781 C 78.058594 256.816406 76.09375 255.144531 74.1875 253.417969 C 72.277344 251.6875 70.421875 249.898438 68.621094 248.054688 C 66.820312 246.210938 65.078125 244.3125 63.394531 242.363281 C 61.710938 240.410156 60.089844 238.410156 58.527344 236.359375 C 56.96875 234.308594 55.472656 232.214844 54.039062 230.070312 C 52.605469 227.929688 51.242188 225.746094 49.945312 223.519531 C 48.644531 221.292969 47.417969 219.027344 46.257812 216.726562 C 45.101562 214.425781 44.011719 212.089844 42.996094 209.722656 C 41.980469 207.351562 41.039062 204.957031 40.171875 202.527344 C 39.300781 200.101562 38.507812 197.652344 37.792969 195.175781 C 37.074219 192.703125 36.433594 190.207031 35.867188 187.695312 C 35.300781 185.179688 34.816406 182.648438 34.40625 180.105469 C 33.996094 177.5625 33.664062 175.007812 33.414062 172.441406 C 33.160156 169.878906 32.988281 167.308594 32.890625 164.734375 C 32.796875 162.15625 32.78125 159.582031 32.84375 157.003906 C 32.90625 154.429688 33.050781 151.859375 33.269531 149.289062 C 33.492188 146.722656 33.792969 144.164062 34.167969 141.613281 C 34.546875 139.066406 35.003906 136.53125 35.539062 134.011719 C 36.070312 131.488281 36.683594 128.988281 37.371094 126.503906 C 38.058594 124.019531 38.820312 121.558594 39.660156 119.121094 C 40.496094 116.6875 41.410156 114.277344 42.398438 111.898438 C 43.382812 109.515625 44.441406 107.167969 45.574219 104.851562 C 46.703125 102.535156 47.902344 100.257812 49.175781 98.015625 C 50.445312 95.773438 51.78125 93.574219 53.1875 91.414062 C 54.59375 89.253906 56.066406 87.136719 57.601562 85.070312 C 59.136719 83 60.734375 80.980469 62.394531 79.007812 C 64.050781 77.035156 65.769531 75.117188 67.546875 73.25 C 69.324219 71.386719 71.160156 69.574219 73.046875 67.820312 C 74.9375 66.070312 76.875 64.375 78.867188 62.742188 C 80.859375 61.105469 82.902344 59.535156 84.992188 58.027344 C 87.078125 56.515625 89.214844 55.074219 91.390625 53.695312 C 93.570312 52.316406 95.785156 51.007812 98.042969 49.765625 C 100.300781 48.523438 102.597656 47.351562 104.925781 46.25 C 107.257812 45.148438 109.617188 44.121094 112.011719 43.164062 C 114.402344 42.210938 116.824219 41.328125 119.269531 40.519531 C 121.71875 39.714844 124.1875 38.980469 126.679688 38.324219 C 129.171875 37.671875 131.683594 37.089844 134.210938 36.589844 C 136.738281 36.089844 139.277344 35.664062 141.832031 35.320312 C 144.386719 34.972656 146.949219 34.707031 149.519531 34.519531 C 152.085938 34.328125 154.660156 34.21875 157.238281 34.191406 C 159.816406 34.160156 162.390625 34.207031 164.964844 34.335938 C 167.539062 34.464844 170.105469 34.667969 172.667969 34.957031 C 175.226562 35.242188 177.777344 35.605469 180.316406 36.046875 C 182.855469 36.488281 185.378906 37.007812 187.886719 37.605469 C 190.390625 38.199219 192.878906 38.875 195.34375 39.625 C 197.808594 40.375 200.25 41.199219 202.664062 42.097656 C 205.078125 42.996094 207.464844 43.96875 209.820312 45.015625 C 212.175781 46.058594 214.496094 47.175781 216.78125 48.367188 C 219.070312 49.554688 221.316406 50.8125 223.527344 52.136719 C 225.734375 53.464844 227.902344 54.855469 230.027344 56.316406 C 232.152344 57.773438 234.226562 59.296875 236.257812 60.882812 C 238.289062 62.472656 240.269531 64.121094 242.199219 65.828125 C 244.128906 67.535156 246.003906 69.300781 247.824219 71.125 C 250.011719 73.308594 252.117188 75.574219 254.136719 77.914062 C 256.15625 80.253906 258.089844 82.664062 259.933594 85.148438 C 261.777344 87.628906 263.523438 90.175781 265.179688 92.789062 C 266.835938 95.402344 268.394531 98.070312 269.851562 100.796875 C 271.3125 103.523438 272.667969 106.296875 273.921875 109.125 C 275.175781 111.949219 276.324219 114.820312 277.367188 117.730469 C 278.410156 120.640625 279.34375 123.585938 280.167969 126.566406 C 280.996094 129.546875 281.707031 132.554688 282.3125 135.585938 C 282.917969 138.617188 283.410156 141.667969 283.789062 144.738281 C 284.167969 147.804688 284.433594 150.882812 284.585938 153.972656 C 284.738281 157.0625 284.773438 160.152344 284.699219 163.242188 C 284.625 166.332031 284.433594 169.417969 284.132812 172.496094 C 283.828125 175.570312 283.414062 178.632812 282.882812 181.679688 C 282.355469 184.726562 281.714844 187.75 280.964844 190.75 C 280.214844 193.75 279.351562 196.714844 278.382812 199.652344 C 277.410156 202.585938 276.335938 205.484375 275.152344 208.339844 C 273.96875 211.195312 272.679688 214.007812 271.289062 216.769531 C 269.898438 219.53125 268.410156 222.234375 266.820312 224.886719 C 265.226562 227.539062 263.542969 230.128906 261.761719 232.65625 C 259.980469 235.183594 258.109375 237.644531 256.144531 240.03125 C 254.183594 242.421875 252.136719 244.738281 250.003906 246.976562 C 247.871094 249.214844 245.660156 251.371094 243.367188 253.445312 C 241.074219 255.523438 238.710938 257.511719 236.269531 259.410156 C 233.832031 261.3125 231.328125 263.121094 228.753906 264.839844 C 226.183594 266.554688 223.550781 268.175781 220.859375 269.699219 C 218.171875 271.21875 215.425781 272.640625 212.628906 273.960938 C 209.835938 275.28125 206.992188 276.5 204.109375 277.609375 C 201.222656 278.71875 198.300781 279.722656 195.339844 280.617188 C 192.382812 281.515625 189.394531 282.300781 186.375 282.976562 C 183.359375 283.652344 180.320312 284.214844 177.261719 284.664062 C 174.203125 285.117188 171.128906 285.453125 168.046875 285.679688 C 164.960938 285.90625 161.875 286.015625 158.78125 286.011719 Z M 158.78125 61.925781 C 156.90625 61.917969 155.03125 61.96875 153.15625 62.074219 C 151.28125 62.175781 149.414062 62.332031 147.546875 62.542969 C 145.683594 62.753906 143.824219 63.015625 141.972656 63.335938 C 140.125 63.652344 138.285156 64.019531 136.457031 64.441406 C 134.628906 64.867188 132.8125 65.339844 131.011719 65.867188 C 129.207031 66.394531 127.421875 66.96875 125.65625 67.597656 C 123.886719 68.226562 122.136719 68.90625 120.40625 69.636719 C 118.679688 70.363281 116.96875 71.140625 115.285156 71.96875 C 113.601562 72.796875 111.941406 73.671875 110.304688 74.59375 C 108.671875 75.515625 107.0625 76.480469 105.484375 77.496094 C 103.902344 78.511719 102.355469 79.570312 100.835938 80.671875 C 99.316406 81.773438 97.832031 82.921875 96.378906 84.109375 C 94.925781 85.296875 93.507812 86.523438 92.125 87.792969 C 90.742188 89.0625 89.398438 90.371094 88.089844 91.71875 C 86.78125 93.066406 85.511719 94.449219 84.285156 95.867188 C 83.054688 97.285156 81.871094 98.738281 80.722656 100.226562 C 79.578125 101.714844 78.476562 103.230469 77.417969 104.78125 C 76.359375 106.332031 75.347656 107.910156 74.378906 109.519531 C 73.414062 111.128906 72.492188 112.761719 71.617188 114.425781 C 70.746094 116.085938 69.917969 117.769531 69.140625 119.480469 C 68.363281 121.1875 67.636719 122.917969 66.957031 124.667969 C 66.28125 126.417969 65.652344 128.183594 65.074219 129.972656 C 64.5 131.757812 63.972656 133.558594 63.5 135.375 C 63.027344 137.191406 62.605469 139.019531 62.234375 140.859375 C 61.867188 142.699219 61.550781 144.550781 61.289062 146.40625 C 61.023438 148.265625 60.816406 150.128906 60.660156 152 C 60.503906 153.871094 60.402344 155.746094 60.351562 157.621094 C 60.304688 159.496094 60.308594 161.375 60.367188 163.25 C 60.425781 165.125 60.539062 167 60.707031 168.867188 C 60.871094 170.738281 61.09375 172.601562 61.363281 174.457031 C 61.636719 176.316406 61.964844 178.164062 62.34375 180 C 62.722656 181.839844 63.152344 183.667969 63.636719 185.480469 C 64.121094 187.292969 64.65625 189.089844 65.242188 190.875 C 65.828125 192.65625 66.464844 194.421875 67.15625 196.167969 C 67.84375 197.914062 68.578125 199.640625 69.367188 201.34375 C 70.152344 203.046875 70.988281 204.730469 71.871094 206.386719 C 72.753906 208.042969 73.683594 209.671875 74.660156 211.273438 C 75.636719 212.878906 76.65625 214.449219 77.726562 215.996094 C 78.792969 217.539062 79.902344 219.050781 81.054688 220.53125 C 82.207031 222.015625 83.402344 223.460938 84.640625 224.871094 C 85.875 226.285156 87.152344 227.660156 88.464844 229 C 89.78125 230.339844 91.132812 231.640625 92.523438 232.902344 C 93.914062 234.164062 95.335938 235.382812 96.796875 236.5625 C 98.257812 237.746094 99.75 238.882812 101.273438 239.976562 C 102.800781 241.070312 104.355469 242.121094 105.9375 243.125 C 107.523438 244.132812 109.136719 245.089844 110.777344 246.003906 C 112.417969 246.917969 114.082031 247.78125 115.769531 248.597656 C 117.460938 249.417969 119.171875 250.1875 120.90625 250.90625 C 122.640625 251.625 124.390625 252.292969 126.164062 252.914062 C 127.9375 253.53125 129.722656 254.097656 131.527344 254.617188 C 133.332031 255.132812 135.152344 255.597656 136.980469 256.007812 C 138.8125 256.421875 140.65625 256.78125 142.507812 257.085938 C 144.359375 257.394531 146.21875 257.648438 148.082031 257.847656 C 149.949219 258.046875 151.820312 258.195312 153.695312 258.289062 C 155.570312 258.382812 157.445312 258.421875 159.324219 258.40625 C 161.199219 258.390625 163.074219 258.324219 164.949219 258.199219 C 166.820312 258.078125 168.6875 257.902344 170.550781 257.675781 C 172.414062 257.445312 174.269531 257.164062 176.117188 256.828125 C 177.960938 256.492188 179.796875 256.105469 181.625 255.664062 C 183.449219 255.222656 185.257812 254.730469 187.054688 254.1875 C 188.851562 253.640625 190.628906 253.046875 192.390625 252.398438 C 194.15625 251.753906 195.898438 251.058594 197.617188 250.3125 C 199.339844 249.566406 201.039062 248.769531 202.71875 247.925781 C 204.394531 247.082031 206.046875 246.191406 207.671875 245.253906 C 209.296875 244.316406 210.894531 243.332031 212.464844 242.300781 C 214.03125 241.273438 215.570312 240.199219 217.078125 239.078125 C 218.585938 237.960938 220.0625 236.800781 221.503906 235.597656 C 222.941406 234.398438 224.347656 233.152344 225.71875 231.871094 C 227.089844 230.585938 228.421875 229.265625 229.714844 227.90625 C 231.007812 226.546875 232.261719 225.152344 233.476562 223.722656 C 234.691406 222.289062 235.863281 220.824219 236.996094 219.328125 C 238.125 217.828125 239.210938 216.296875 240.253906 214.738281 C 241.296875 213.175781 242.292969 211.585938 243.246094 209.96875 C 244.195312 208.351562 245.101562 206.707031 245.957031 205.039062 C 246.816406 203.367188 247.625 201.675781 248.386719 199.957031 C 249.144531 198.242188 249.855469 196.507812 250.515625 194.75 C 251.175781 192.992188 251.785156 191.21875 252.347656 189.425781 C 252.90625 187.632812 253.414062 185.828125 253.867188 184.007812 C 254.324219 182.1875 254.726562 180.355469 255.078125 178.511719 C 255.425781 176.667969 255.726562 174.8125 255.96875 172.953125 C 256.214844 171.089844 256.402344 169.226562 256.542969 167.351562 C 256.679688 165.480469 256.761719 163.605469 256.792969 161.730469 C 256.820312 159.851562 256.796875 157.976562 256.71875 156.101562 C 256.644531 154.226562 256.511719 152.355469 256.328125 150.488281 C 256.140625 148.617188 255.902344 146.757812 255.613281 144.902344 C 255.320312 143.050781 254.976562 141.207031 254.578125 139.371094 C 254.179688 137.535156 253.730469 135.714844 253.230469 133.90625 C 252.726562 132.097656 252.175781 130.304688 251.570312 128.527344 C 250.964844 126.75 250.3125 124.992188 249.605469 123.253906 C 248.902344 121.511719 248.144531 119.796875 247.34375 118.097656 C 246.539062 116.402344 245.6875 114.730469 244.789062 113.085938 C 243.886719 111.4375 242.941406 109.816406 241.949219 108.222656 C 240.957031 106.628906 239.921875 105.066406 238.839844 103.53125 C 237.757812 102 236.632812 100.496094 235.464844 99.027344 C 234.296875 97.558594 233.085938 96.125 231.835938 94.722656 C 230.585938 93.324219 229.296875 91.960938 227.96875 90.636719 C 225.703125 88.367188 223.332031 86.21875 220.851562 84.183594 C 218.375 82.148438 215.804688 80.242188 213.140625 78.460938 C 210.476562 76.675781 207.734375 75.03125 204.90625 73.519531 C 202.082031 72.003906 199.1875 70.632812 196.226562 69.40625 C 193.265625 68.175781 190.253906 67.097656 187.1875 66.164062 C 184.121094 65.230469 181.015625 64.449219 177.875 63.824219 C 174.730469 63.195312 171.5625 62.722656 168.375 62.40625 C 165.183594 62.085938 161.988281 61.925781 158.78125 61.925781 Z M 158.78125 61.925781 " fill-opacity="1" fill-rule="nonzero"/><g clip-path="url(#0ca7f117cf)"><path fill="#ff914d" d="M 337.28125 352.5 C 335.449219 352.492188 333.6875 352.136719 331.996094 351.429688 C 330.308594 350.722656 328.816406 349.71875 327.523438 348.417969 L 228.246094 249.207031 C 227.601562 248.5625 227.027344 247.863281 226.523438 247.109375 C 226.015625 246.351562 225.589844 245.554688 225.242188 244.714844 C 224.894531 243.875 224.632812 243.011719 224.457031 242.117188 C 224.277344 241.226562 224.1875 240.328125 224.1875 239.417969 C 224.1875 238.507812 224.277344 237.609375 224.457031 236.714844 C 224.632812 235.824219 224.894531 234.960938 225.242188 234.121094 C 225.589844 233.28125 226.015625 232.480469 226.523438 231.726562 C 227.027344 230.96875 227.601562 230.269531 228.246094 229.628906 C 228.886719 228.984375 229.585938 228.410156 230.34375 227.90625 C 231.097656 227.402344 231.894531 226.976562 232.734375 226.625 C 233.574219 226.277344 234.441406 226.015625 235.332031 225.839844 C 236.222656 225.660156 237.125 225.574219 238.035156 225.574219 C 238.941406 225.574219 239.84375 225.660156 240.734375 225.839844 C 241.625 226.015625 242.492188 226.277344 243.332031 226.625 C 244.171875 226.976562 244.96875 227.402344 245.726562 227.90625 C 246.480469 228.410156 247.179688 228.984375 247.824219 229.628906 L 347.035156 328.90625 C 347.996094 329.875 348.796875 330.960938 349.4375 332.164062 C 350.078125 333.371094 350.53125 334.640625 350.796875 335.980469 C 351.058594 337.316406 351.125 338.664062 350.992188 340.023438 C 350.855469 341.382812 350.53125 342.691406 350.007812 343.949219 C 349.488281 345.210938 348.792969 346.371094 347.929688 347.425781 C 347.066406 348.480469 346.070312 349.390625 344.9375 350.148438 C 343.804688 350.910156 342.585938 351.492188 341.28125 351.890625 C 339.976562 352.292969 338.644531 352.496094 337.28125 352.5 Z M 337.28125 352.5 " fill-opacity="1" fill-rule="nonzero"/></g></svg>